<?xml version="1.0" encoding="UTF-8"?>
<!DOCTYPE svg PUBLIC "-//W3C//DTD SVG 1.1//EN" "http://www.w3.org/Graphics/SVG/1.1/DTD/svg11.dtd">
<!-- Creator: CorelDRAW X7 -->
<svg xmlns="http://www.w3.org/2000/svg" xml:space="preserve" width="884px" height="274px" version="1.1" style="shape-rendering:geometricPrecision; text-rendering:geometricPrecision; image-rendering:optimizeQuality; fill-rule:evenodd; clip-rule:evenodd"
viewBox="0 0 884 274"
 xmlns:xlink="http://www.w3.org/1999/xlink">
 <defs>
  <style type="text/css">
   <![CDATA[
    .fil0 {fill:none}
    .fil2 {fill:white}
    .fil1 {fill:white;fill-rule:nonzero}
   ]]>
  </style>
 </defs>
 <g id="Layer_x0020_1">
  <metadata id="CorelCorpID_0Corel-Layer"/>
  <g id="_1473943021264">
   <rect class="fil0" y="-2" width="884" height="278"/>
   <g>
    <path class="fil1" d="M271 194l42 -106 21 0 41 106 -25 0 -31 -88 8 0 -32 88 -24 0zm23 -19l0 -19 58 0 0 19 -58 0zm124 21c-8,0 -15,-2 -21,-5 -6,-3 -11,-8 -15,-14 -3,-6 -5,-12 -5,-19 0,-8 2,-14 5,-20 4,-6 8,-10 14,-14 6,-3 13,-4 20,-4 8,0 14,1 19,4 6,3 10,8 13,13 4,6 5,12 5,19 0,1 0,3 0,4 0,2 -1,3 -1,5l-63 0 0 -15 53 -1 -10 7c0,-4 0,-8 -2,-10 -1,-3 -3,-5 -5,-7 -2,-1 -5,-2 -9,-2 -3,0 -6,1 -9,3 -3,1 -5,4 -6,7 -1,3 -2,6 -2,10 0,5 1,8 2,11 2,4 4,6 7,8 3,1 6,2 10,2 3,0 7,-1 10,-2 2,-1 5,-3 7,-5l13 12c-4,4 -8,7 -13,10 -5,2 -11,3 -17,3zm94 -2l0 -41c0,-4 -1,-7 -3,-10 -3,-2 -6,-3 -9,-3 -3,0 -5,0 -7,1 -2,1 -3,3 -4,5 -1,2 -2,4 -2,7l-9 -5c0,-6 2,-11 4,-15 3,-4 6,-7 10,-10 5,-2 10,-3 16,-3 5,0 10,1 14,3 4,3 7,6 10,11 2,4 3,8 3,13l0 47 -23 0zm-48 0l0 -73 23 0 0 73 -23 0zm110 2c-7,0 -12,-2 -17,-4 -5,-2 -10,-6 -13,-10l16 -15c2,2 4,4 6,5 3,2 5,2 8,2 3,0 6,0 8,-2 2,-1 4,-3 5,-5 2,-2 2,-5 2,-9l0 -70 24 0 0 69c0,8 -1,15 -5,20 -3,6 -7,11 -13,14 -6,3 -13,5 -21,5zm91 0c-8,0 -14,-2 -20,-5 -6,-4 -11,-8 -15,-14 -3,-6 -5,-12 -5,-20 0,-7 2,-13 5,-19 4,-6 8,-10 14,-13 6,-4 13,-5 21,-5 7,0 14,1 20,4 6,4 11,8 15,14 3,6 5,12 5,19 0,8 -2,14 -5,20 -4,6 -9,10 -15,14 -6,3 -13,5 -20,5zm0 -21c3,0 6,-1 9,-2 2,-2 4,-4 5,-6 2,-3 2,-6 2,-10 0,-3 0,-6 -2,-8 -1,-3 -3,-5 -5,-6 -3,-2 -6,-3 -9,-3 -3,0 -6,1 -9,3 -2,1 -4,3 -6,6 -1,2 -2,5 -2,9 0,3 1,6 2,9 2,2 4,4 6,6 3,1 6,2 9,2zm47 52c-5,0 -10,-1 -14,-3 -3,-2 -6,-4 -9,-7l14 -15c1,2 2,3 3,3 2,1 3,1 4,1 3,0 4,-1 6,-2 1,-1 2,-3 2,-6l0 -77 23 0 0 77c0,6 -1,11 -4,15 -2,4 -6,8 -10,10 -4,3 -9,4 -15,4zm18 -116c-4,0 -7,-1 -9,-4 -3,-2 -4,-5 -4,-8 0,-4 1,-7 4,-9 2,-3 5,-4 9,-4 3,0 6,1 9,4 2,2 3,5 3,9 0,3 -1,6 -3,8 -3,3 -6,4 -9,4zm62 85c-7,0 -14,-2 -20,-5 -6,-4 -11,-8 -14,-14 -4,-6 -6,-12 -6,-20 0,-7 2,-13 6,-19 3,-6 8,-10 14,-13 6,-4 13,-5 20,-5 8,0 15,1 21,4 6,4 10,8 14,14 3,6 5,12 5,19 0,8 -2,14 -5,20 -4,6 -8,10 -14,14 -6,3 -13,5 -21,5zm0 -21c4,0 6,-1 9,-2 2,-2 4,-4 6,-6 1,-3 2,-6 2,-10 0,-3 -1,-6 -2,-8 -2,-3 -4,-5 -6,-6 -3,-2 -5,-3 -9,-3 -3,0 -6,1 -8,3 -3,1 -5,3 -6,6 -2,2 -2,5 -2,9 0,3 0,6 2,9 1,2 3,4 6,6 2,1 5,2 8,2z"/>
    <g>
     <path class="fil2" d="M129 70l51 50 0 3 0 47 0 4 -51 51 -77 -78 77 -77zm24 94l0 -34 -24 -24 -41 41 41 41 24 -24z"/>
     <polygon class="fil2" points="213,70 213,198 186,225 186,97 "/>
     <polygon class="fil2" points="183,228 158,253 151,247 152,247 139,234 183,190 "/>
     <polygon class="fil2" points="213,21 213,63 186,90 186,48 "/>
    </g>
   </g>
  </g>
 </g>
</svg>
